<svg xmlns="http://www.w3.org/2000/svg" viewBox="0 0 107 133" width="107" height="133" fill="white"><g transform="translate(-139 -86.02)"><g transform="translate(-140.61 -45.516)"><g transform="translate(279.611 131.536)"><path d="M.3,110.4l-.3,.3H25.1l-.2-.3c-7.1-13.3-5.4-31,3.6-45.8v35.8c0,20.1-4.5,29-7.2,32.5l-.2,.3H58.7c13.3,0,25.4-3.4,34-9.5,9.1-6.5,14-15.6,14-26.4,.1-9.3-3.4-18.2-9.8-25-5.2-5.6-11.9-9.4-19.3-11.1,9.3-6.3,16.4-11.9,16.4-20.2,0-6.3-3.2-11.1-9.5-14.2-3.9-1.8-8.1-2.9-12.4-3.4,.5-1.6,.8-3.2,.8-4.9,0-6.3-3.2-11.1-9.5-14.2C57.3,1.5,48.5,0,37,0H0L.2,.3C3,3.9,7.5,12.8,7.5,32.8v45.1c0,20.1-4.5,29-7.2,32.5ZM39.6,48.4c-.5,.5-1,.9-1.5,1.3h0c-.6,.6-1.2,1.2-1.9,1.8,.1-1,.2-2.1,.3-3.1,.3-3.4,.6-6.8,.9-10.2,.9-9.7,6-13.7,17.8-13.7,1.4,0,2.8,0,4.1,.1-3.5,8.9-13,17.6-19.7,23.8h0Zm-1.7,4.6l10.3,22c.9,1.8,1.7,3.9,2.6,6-9.2,11.1-14.5,22.4-21.5,42.6,2.7-22.9,4.7-46,6.7-68.6,.6-.7,1.2-1.3,1.9-2h0Zm13.8,30.6c3.7,10,6.7,21.6,6.7,26.9v.2h20.7l-.2-.3c-7-11.4-13.4-23.2-19.3-35.3,3.7-3.5,8.5-7,16.6-12.8,8.4,4.7,18.1,16.4,18.1,33.8,0,10.6-3.6,35.1-37,35.1h-12.4c-3.4-7.2-4.7-12.3-4.7-19.3,0-5.7,1.7-16.2,11.5-28.3h0Zm16.3-19.9h0c-3.5,3.2-6.7,6.1-9.5,8.9-.1-.3-.2-.5-.4-.8l-11.9-25.8c2.2-1.5,4.5-3,6.7-4.4,7-4.4,14.1-9,17.6-15,7.4,2.5,11.2,7.2,11.2,14,.1,9.3-8.6,18.4-13.7,23.1h0Zm-9.8-41.2H21.2l.2,.3c2.7,3.5,7.2,12.4,7.2,32.5v4.7c-6.5,8.5-13.4,20.7-20.5,41,3-23.4,5-47.4,7-70.6,.4-4.9,.8-9.8,1.3-14.8,.9-9.7,6-13.7,17.6-13.7,17.4,0,26.6,5.5,26.6,16,0,1.5-.2,3-.7,4.5-.6,.1-1.1,.1-1.7,.1Z"/></g></g></g></svg>